<mxfile host="app.diagrams.net" modified="2024-03-19T08:22:54.802Z" agent="Mozilla/5.0 (Macintosh; Intel Mac OS X 10_15_7) AppleWebKit/537.36 (KHTML, like Gecko) Chrome/122.0.0.0 Safari/537.36" etag="cgF3AqLk6HmkOo80j9uE" version="24.0.7" type="github">
  <diagram name="第 1 页" id="Ko4YYx5alA-5GFdxr14y">
    <mxGraphModel dx="1247" dy="-23" grid="1" gridSize="10" guides="1" tooltips="1" connect="1" arrows="1" fold="1" page="1" pageScale="1" pageWidth="827" pageHeight="1169" math="0" shadow="0">
      <root>
        <mxCell id="0" />
        <mxCell id="1" parent="0" />
        <mxCell id="LT23ymqmdGGHA7XENWWl-1" value="系统用户&lt;br style=&quot;font-size: 15px;&quot;&gt;" style="shape=umlActor;verticalLabelPosition=bottom;verticalAlign=top;html=1;outlineConnect=0;fontSize=15;" vertex="1" parent="1">
          <mxGeometry x="1230" y="1724" width="30" height="60" as="geometry" />
        </mxCell>
        <mxCell id="LT23ymqmdGGHA7XENWWl-2" value="新增数据源" style="ellipse;whiteSpace=wrap;html=1;fontSize=15;" vertex="1" parent="1">
          <mxGeometry x="1370" y="1544" width="100" height="60" as="geometry" />
        </mxCell>
        <mxCell id="LT23ymqmdGGHA7XENWWl-3" value="编辑数据源" style="ellipse;whiteSpace=wrap;html=1;fontSize=15;" vertex="1" parent="1">
          <mxGeometry x="1370" y="1657" width="100" height="60" as="geometry" />
        </mxCell>
        <mxCell id="LT23ymqmdGGHA7XENWWl-4" value="删除数据源" style="ellipse;whiteSpace=wrap;html=1;fontSize=15;" vertex="1" parent="1">
          <mxGeometry x="1370" y="1774" width="100" height="60" as="geometry" />
        </mxCell>
        <mxCell id="LT23ymqmdGGHA7XENWWl-5" value="查看数据源" style="ellipse;whiteSpace=wrap;html=1;fontSize=15;" vertex="1" parent="1">
          <mxGeometry x="1370" y="1900" width="100" height="60" as="geometry" />
        </mxCell>
        <mxCell id="LT23ymqmdGGHA7XENWWl-6" value="" style="endArrow=classic;html=1;rounded=0;exitX=1;exitY=0.3333333333333333;exitDx=0;exitDy=0;exitPerimeter=0;entryX=0;entryY=0.5;entryDx=0;entryDy=0;fontSize=15;" edge="1" parent="1" source="LT23ymqmdGGHA7XENWWl-1" target="LT23ymqmdGGHA7XENWWl-2">
          <mxGeometry width="50" height="50" relative="1" as="geometry">
            <mxPoint x="1510" y="1600" as="sourcePoint" />
            <mxPoint x="1560" y="1550" as="targetPoint" />
          </mxGeometry>
        </mxCell>
        <mxCell id="LT23ymqmdGGHA7XENWWl-7" value="" style="endArrow=classic;html=1;rounded=0;exitX=0.5;exitY=0.5;exitDx=0;exitDy=0;exitPerimeter=0;entryX=0.022;entryY=0.625;entryDx=0;entryDy=0;entryPerimeter=0;fontSize=15;" edge="1" parent="1" source="LT23ymqmdGGHA7XENWWl-1" target="LT23ymqmdGGHA7XENWWl-3">
          <mxGeometry width="50" height="50" relative="1" as="geometry">
            <mxPoint x="1510" y="1600" as="sourcePoint" />
            <mxPoint x="1560" y="1550" as="targetPoint" />
          </mxGeometry>
        </mxCell>
        <mxCell id="LT23ymqmdGGHA7XENWWl-8" value="" style="endArrow=classic;html=1;rounded=0;fontSize=15;" edge="1" parent="1" target="LT23ymqmdGGHA7XENWWl-4">
          <mxGeometry width="50" height="50" relative="1" as="geometry">
            <mxPoint x="1260" y="1750" as="sourcePoint" />
            <mxPoint x="1560" y="1550" as="targetPoint" />
          </mxGeometry>
        </mxCell>
        <mxCell id="LT23ymqmdGGHA7XENWWl-9" value="" style="endArrow=classic;html=1;rounded=0;entryX=0.033;entryY=0.254;entryDx=0;entryDy=0;entryPerimeter=0;fontSize=15;" edge="1" parent="1" source="LT23ymqmdGGHA7XENWWl-1" target="LT23ymqmdGGHA7XENWWl-5">
          <mxGeometry width="50" height="50" relative="1" as="geometry">
            <mxPoint x="1510" y="1600" as="sourcePoint" />
            <mxPoint x="1560" y="1550" as="targetPoint" />
          </mxGeometry>
        </mxCell>
        <mxCell id="LT23ymqmdGGHA7XENWWl-10" value="静态数据源" style="ellipse;whiteSpace=wrap;html=1;fontSize=15;" vertex="1" parent="1">
          <mxGeometry x="1550" y="1490" width="100" height="60" as="geometry" />
        </mxCell>
        <mxCell id="LT23ymqmdGGHA7XENWWl-11" value="动态数据源" style="ellipse;whiteSpace=wrap;html=1;fontSize=15;" vertex="1" parent="1">
          <mxGeometry x="1550" y="1580" width="100" height="60" as="geometry" />
        </mxCell>
        <mxCell id="LT23ymqmdGGHA7XENWWl-12" value="" style="endArrow=classic;html=1;rounded=0;exitX=0.96;exitY=0.294;exitDx=0;exitDy=0;exitPerimeter=0;entryX=0;entryY=0.5;entryDx=0;entryDy=0;fontSize=15;" edge="1" parent="1" source="LT23ymqmdGGHA7XENWWl-2" target="LT23ymqmdGGHA7XENWWl-10">
          <mxGeometry width="50" height="50" relative="1" as="geometry">
            <mxPoint x="1510" y="1600" as="sourcePoint" />
            <mxPoint x="1560" y="1550" as="targetPoint" />
          </mxGeometry>
        </mxCell>
        <mxCell id="LT23ymqmdGGHA7XENWWl-13" value="" style="endArrow=classic;html=1;rounded=0;exitX=1.013;exitY=0.65;exitDx=0;exitDy=0;entryX=0;entryY=0.5;entryDx=0;entryDy=0;exitPerimeter=0;fontSize=15;" edge="1" parent="1" source="LT23ymqmdGGHA7XENWWl-2" target="LT23ymqmdGGHA7XENWWl-11">
          <mxGeometry width="50" height="50" relative="1" as="geometry">
            <mxPoint x="1510" y="1600" as="sourcePoint" />
            <mxPoint x="1560" y="1550" as="targetPoint" />
          </mxGeometry>
        </mxCell>
      </root>
    </mxGraphModel>
  </diagram>
</mxfile>
